# xmcd
#
# Track frame offsets:
#	150
#	14785
#	29932
#	55560
#	89607
#	110780
#	133231
#	154342
#	175027
#	193991
#	214240
#
# Disc length: 3508 seconds
# Revision: 1
# Processed by: cddbd v1.5.2PL0 Copyright (c) Steve Scherf et al.
# Submitted via: dBpowerAMP V12.0
#
DISCID=ad0db20b
DTITLE=Kris Pohlmann Band - One for Sorrow
DYEAR=2012
DGENRE=Blues - Rock
TTITLE0=SoulShaker
TTITLE1=One Day Baby
TTITLE2=Living a Lie
TTITLE3=The Blues Inside
TTITLE4=Nothing's Real
TTITLE5=Believe
TTITLE6=Nowhere to Run, Nowhere to Hide
TTITLE7=Bad for Me
TTITLE8=Don't Make a Fool of Me
TTITLE9=One for Sorrow
TTITLE10=Heavy on my Soul
EXTD=
EXTT0=
EXTT1=
EXTT2=
EXTT3=
EXTT4=
EXTT5=
EXTT6=
EXTT7=
EXTT8=
EXTT9=
EXTT10=
PLAYORDER=
